<svg width="512" height="512" viewBox="0 0 512 512" fill="none" xmlns="http://www.w3.org/2000/svg">
    <rect width="512" height="512" fill="#050505"/>
    <defs>
        <radialGradient id="glow" cx="0.5" cy="0.5" r="0.5">
            <stop offset="0%" stop-color="#2979FF" stop-opacity="1" />
            <stop offset="100%" stop-color="#2979FF" stop-opacity="0" />
        </radialGradient>
    </defs>
    
    <!-- Grid BG -->
    <path d="M0 0 H512 M0 40 H512 M0 80 H512 M0 120 H512 M0 160 H512 M0 200 H512 M0 240 H512 M0 280 H512 M0 320 H512 M0 360 H512 M0 400 H512 M0 440 H512 M0 480 H512" stroke="white" stroke-opacity="0.05" />
    <path d="M0 0 V512 M40 0 V512 M80 0 V512 M120 0 V512 M160 0 V512 M200 0 V512 M240 0 V512 M280 0 V512 M320 0 V512 M360 0 V512 M400 0 V512 M440 0 V512 M480 0 V512" stroke="white" stroke-opacity="0.05" />

    <!-- Particle M -->
    <g fill="white" fill-opacity="0.8">
        <!-- Left Col -->
        <circle cx="140" cy="120" r="6" fill="#2979FF"/>
        <circle cx="140" cy="160" r="4" />
        <circle cx="140" cy="200" r="5" />
        <circle cx="140" cy="240" r="4" />
        <circle cx="140" cy="280" r="6" fill="#2979FF"/>
        <circle cx="140" cy="320" r="4" />
        <circle cx="140" cy="360" r="5" />
        <circle cx="140" cy="400" r="6" fill="#2979FF"/>

        <!-- Diagonal 1 -->
        <circle cx="170" cy="160" r="4" />
        <circle cx="200" cy="200" r="5" />
        <circle cx="230" cy="240" r="4" />
        <circle cx="256" cy="280" r="7" fill="#2979FF"/>

        <!-- Diagonal 2 -->
        <circle cx="282" cy="240" r="4" />
        <circle cx="312" cy="200" r="5" />
        <circle cx="342" cy="160" r="4" />
        
        <!-- Right Col -->
        <circle cx="372" cy="120" r="6" fill="#2979FF"/>
        <circle cx="372" cy="160" r="4" />
        <circle cx="372" cy="200" r="5" />
        <circle cx="372" cy="240" r="4" />
        <circle cx="372" cy="280" r="6" fill="#2979FF"/>
        <circle cx="372" cy="320" r="4" />
        <circle cx="372" cy="360" r="5" />
        <circle cx="372" cy="400" r="6" fill="#2979FF"/>
    </g>

    <!-- Connecting Glow Lines -->
    <path d="M140 120 L140 400 M140 120 L256 280 L372 120 L372 400" stroke="url(#glow)" stroke-width="2" stroke-opacity="0.4" fill="none" />
</svg>